<?xml version="1.0" encoding="utf-8"?>
<!-- Generator: Adobe Illustrator 26.0.1, SVG Export Plug-In . SVG Version: 6.00 Build 0)  -->
<svg version="1.1" id="katman_1" xmlns="http://www.w3.org/2000/svg" xmlns:xlink="http://www.w3.org/1999/xlink" x="0px" y="0px"
	 viewBox="0 0 3118 488.5" style="enable-background:new 0 0 3118 488.5;" xml:space="preserve">
<style type="text/css">
	.st0{enable-background:new    ;}
	.st1{fill:#626262;}
</style>
<g class="st0">
	<path class="st1" d="M167.8,39.4c3.1,0,4.7,1.6,4.7,4.7V65c0,3.3-1.6,4.9-4.7,4.9H61c-5.5,0-10.1,0.5-13.8,1.4
		c-3.6,0.9-6.5,2.5-8.6,4.7c-2.1,2.2-3.7,5.2-4.6,8.8c-0.9,3.7-1.4,8.4-1.4,14.1v30.7c0,5.7,0.5,10.4,1.4,14.2
		c0.9,3.8,2.5,6.8,4.6,9c2.1,2.2,5,3.8,8.6,4.7c3.6,0.9,8.2,1.4,13.8,1.4h70.4c3.7,0,6.4-1,8.1-2.9c1.7-1.9,2.6-5.3,2.6-10.1v-17.3
		c0-1.8-0.9-2.8-2.6-2.8H77c-3.1,0-4.7-1.6-4.7-4.9v-16c0-3.3,1.6-4.9,4.7-4.9h88.9c4.3,0,6.4,2.1,6.4,6.4v49.7
		c0,11.9-2.3,20.4-6.8,25.3c-4.6,4.9-11.1,7.4-19.6,7.4H59.7c-10.8,0-20-1-27.5-3c-7.5-2-13.7-5.2-18.4-9.7
		c-4.8-4.5-8.2-10.3-10.4-17.5C1.1,151.4,0,142.7,0,132.4V95.7c0-10.2,1.1-18.9,3.3-26C5.5,62.6,9,56.8,13.8,52.4
		c4.8-4.5,10.9-7.7,18.4-9.8c7.5-2.1,16.7-3.1,27.5-3.1H167.8z"/>
	<path class="st1" d="M289.6,39.4c5.4,0,9.9,1.1,13.6,3.3c3.7,2.2,7.3,6.5,10.9,12.9l70.6,128.2c0.7,1.4,0.9,2.6,0.5,3.5
		c-0.4,0.9-1.4,1.4-3.1,1.4H355c-2.4,0-4.1-0.9-4.9-2.8L335,158.4H234.8l-14.7,27.5c-1,1.8-2.6,2.8-4.9,2.8h-27.7
		c-1.8,0-3-0.5-3.3-1.4c-0.4-0.9-0.2-2.1,0.5-3.5l69.9-128.2c3.6-6.4,7-10.7,10.4-12.9c3.4-2.2,7.4-3.3,11.9-3.3H289.6z
		 M248.2,133.7h73.4l-33.9-62.5c-0.6-1-1.4-1.5-2.3-1.5H284c-1,0-1.8,0.5-2.3,1.5L248.2,133.7z"/>
	<path class="st1" d="M523.7,39.4c16.3,0,28.1,3.7,35.2,11.1c7.1,7.4,10.7,18.3,10.7,32.8v12.2c0,12.2-2.5,21.9-7.5,29
		c-5,7.1-13.1,11.7-24.3,13.6l36.5,45.2c0.7,0.7,0.9,1.8,0.6,3.2c-0.3,1.4-1.4,2.1-3.4,2.1H544c-1.8,0-3.1-0.2-3.8-0.6
		c-0.7-0.4-1.4-1.1-2.1-2.1l-33.7-44.4h-68.9V184c0,3.1-1.6,4.7-4.7,4.7h-23c-3.3,0-4.9-1.6-4.9-4.7V45.8c0-4.3,2.1-6.4,6.4-6.4
		H523.7z M435.4,115.6h81.7c7.2,0,12.4-1.6,15.4-4.7c3-3.1,4.5-7.9,4.5-14.3v-9c0-6.4-1.5-11.2-4.5-14.3c-3-3.1-8.1-4.7-15.4-4.7
		h-78.9c-1.8,0-2.8,0.9-2.8,2.6V115.6z"/>
	<path class="st1" d="M690.5,39.4c5.4,0,9.9,1.1,13.6,3.3c3.7,2.2,7.3,6.5,10.9,12.9l70.6,128.2c0.7,1.4,0.9,2.6,0.5,3.5
		c-0.4,0.9-1.4,1.4-3.1,1.4h-27.1c-2.4,0-4.1-0.9-4.9-2.8l-15.1-27.5H635.7L621,185.9c-1,1.8-2.6,2.8-4.9,2.8h-27.7
		c-1.8,0-3-0.5-3.3-1.4c-0.4-0.9-0.2-2.1,0.5-3.5l69.9-128.2c3.6-6.4,7-10.7,10.4-12.9c3.4-2.2,7.4-3.3,11.9-3.3H690.5z
		 M649.1,133.7h73.4l-33.9-62.5c-0.6-1-1.4-1.5-2.3-1.5h-1.3c-1,0-1.8,0.5-2.3,1.5L649.1,133.7z"/>
	<path class="st1" d="M841.7,39.4c3.4,0,6.3,0.1,8.5,0.4c2.3,0.3,4.3,0.9,6,1.8c1.7,0.9,3.3,2.2,4.9,3.8c1.6,1.6,3.3,3.8,5.3,6.5
		l79.3,104.1c0.6,1,1.5,1.5,2.8,1.5h1.9c1.1,0,1.7-0.7,1.7-2.1V44.1c0-3.1,1.6-4.7,4.7-4.7h22.4c3.1,0,4.7,1.6,4.7,4.7v122.4
		c0,8.7-1.6,14.5-4.7,17.6c-3.1,3.1-8,4.6-14.5,4.6h-18.3c-3.3,0-6-0.1-8.2-0.4c-2.2-0.3-4.2-0.9-5.9-1.7s-3.4-2.1-5-3.7
		c-1.6-1.6-3.5-3.9-5.7-6.7L842.1,72.1c-0.9-1-1.8-1.5-2.8-1.5h-1.9c-1.1,0-1.7,0.7-1.7,2.1V184c0,3.1-1.6,4.7-4.7,4.7h-22.4
		c-3.3,0-4.9-1.6-4.9-4.7V61.6c0-8.7,1.6-14.5,4.7-17.6c3.1-3.1,8-4.6,14.5-4.6H841.7z"/>
	<path class="st1" d="M1174.5,39.4c3.3,0,4.9,1.6,4.9,4.7V65c0,3.3-1.6,4.9-4.9,4.9h-67V184c0,3.1-1.6,4.7-4.7,4.7h-23.2
		c-3.1,0-4.7-1.6-4.7-4.7V69.9h-67c-3.3,0-4.9-1.6-4.9-4.9V44.1c0-3.1,1.6-4.7,4.9-4.7H1174.5z"/>
	<path class="st1" d="M1226.3,39.4c3.1,0,4.7,1.6,4.7,4.7V184c0,3.1-1.6,4.7-4.7,4.7h-23c-3.3,0-4.9-1.6-4.9-4.7V44.1
		c0-3.1,1.6-4.7,4.9-4.7H1226.3z M1225.1,0c3.1,0,4.7,1.3,4.7,3.8v20.3c0,2.6-1.6,3.8-4.7,3.8h-20.9c-3.1,0-4.7-1.3-4.7-3.8V3.8
		c0-2.6,1.6-3.8,4.7-3.8H1225.1z"/>
	<path class="st1" d="M1286.9,39.4c3.1,0,4.7,1.6,4.7,4.7v85.1c0,5.7,0.5,10.4,1.4,14.2c0.9,3.8,2.5,6.8,4.6,9
		c2.1,2.2,5,3.8,8.6,4.7c3.6,0.9,8.2,1.4,13.8,1.4h86.4c3.1,0,4.7,1.6,4.7,4.7V184c0,3.1-1.6,4.7-4.7,4.7h-87.6c-10.8,0-20-1-27.5-3
		c-7.5-2-13.7-5.2-18.4-9.7c-4.8-4.5-8.2-10.3-10.4-17.5c-2.2-7.2-3.3-15.9-3.3-26.1V44.1c0-3.1,1.6-4.7,4.9-4.7H1286.9z"/>
	<path class="st1" d="M1458.1,39.4c3.1,0,4.7,1.6,4.7,4.7V184c0,3.1-1.6,4.7-4.7,4.7h-23c-3.3,0-4.9-1.6-4.9-4.7V44.1
		c0-3.1,1.6-4.7,4.9-4.7H1458.1z M1456.8,0c3.1,0,4.7,1.3,4.7,3.8v20.3c0,2.6-1.6,3.8-4.7,3.8H1436c-3.1,0-4.7-1.3-4.7-3.8V3.8
		c0-2.6,1.6-3.8,4.7-3.8H1456.8z"/>
	<path class="st1" d="M1724.9,39.4c3.3,0,4.9,1.6,4.9,4.7V65c0,3.3-1.6,4.9-4.9,4.9h-67V184c0,3.1-1.6,4.7-4.7,4.7H1630
		c-3.1,0-4.7-1.6-4.7-4.7V69.9h-67c-3.3,0-4.9-1.6-4.9-4.9V44.1c0-3.1,1.6-4.7,4.9-4.7H1724.9z"/>
	<path class="st1" d="M1896.3,39.4c3.3,0,4.9,1.6,4.9,4.7v20.3c0,3.1-1.6,4.7-4.9,4.7h-93.2c-5.5,0-10.1,0.5-13.8,1.4
		c-3.6,0.9-6.5,2.5-8.7,4.7c-2.2,2.2-3.7,5.2-4.6,9c-0.9,3.8-1.3,8.4-1.3,14v2.1h120.5c3.1,0,4.7,1.6,4.7,4.7v16.8
		c0,3.1-1.6,4.7-4.7,4.7h-120.5v3.6c0,5.5,0.4,10.2,1.3,14c0.9,3.8,2.4,6.8,4.6,9c2.2,2.2,5.1,3.8,8.7,4.7c3.6,0.9,8.2,1.4,13.8,1.4
		h93.2c3.3,0,4.9,1.6,4.9,4.7V184c0,3.1-1.6,4.7-4.9,4.7h-93.8c-10.8,0-20-1-27.5-3c-7.5-2-13.7-5.2-18.4-9.7
		c-4.8-4.5-8.2-10.3-10.4-17.5c-2.2-7.2-3.3-15.9-3.3-26.1V95.7c0-10.2,1.1-18.9,3.3-26c2.2-7.1,5.7-12.9,10.4-17.4
		c4.8-4.5,10.9-7.7,18.4-9.8c7.5-2.1,16.7-3.1,27.5-3.1H1896.3z"/>
	<path class="st1" d="M1953.7,39.4c3.1,0,4.7,1.6,4.7,4.7v56.7h30.1c3.4,0,6.3-0.1,8.5-0.3c2.3-0.2,4.3-0.7,6-1.4
		c1.7-0.7,3.3-1.7,4.7-3c1.4-1.3,2.9-2.9,4.5-4.9l36.7-49c0.7-1,1.4-1.7,2.1-2.1c0.7-0.4,2.1-0.6,4.1-0.6h26.4
		c1.8,0,2.9,0.6,3.3,1.8c0.4,1.2,0.2,2.3-0.5,3.3l-41.4,53.5c-2.4,3.3-4.7,6-6.7,8.3c-2.1,2.3-4.1,4.3-6.1,6
		c5.5,3.4,10.9,8.5,16.2,15.4l43.7,55.4c0.6,0.7,0.8,1.8,0.6,3.3c-0.1,1.5-1.3,2.2-3.4,2.2h-27.3c-1.8,0-3.1-0.2-3.8-0.6
		c-0.7-0.4-1.4-1.1-2.1-2.1l-39.2-50.8c-2.8-3.7-5.9-6.2-9.2-7.6c-3.3-1.3-8.2-2-14.7-2h-32.4V184c0,3.1-1.6,4.7-4.7,4.7h-23
		c-3.3,0-4.9-1.6-4.9-4.7V44.1c0-3.1,1.6-4.7,4.9-4.7H1953.7z"/>
	<path class="st1" d="M2145.8,39.4c3.4,0,6.3,0.1,8.5,0.4c2.3,0.3,4.3,0.9,6,1.8c1.7,0.9,3.3,2.2,4.9,3.8c1.6,1.6,3.3,3.8,5.3,6.5
		l79.3,104.1c0.6,1,1.5,1.5,2.8,1.5h1.9c1.1,0,1.7-0.7,1.7-2.1V44.1c0-3.1,1.6-4.7,4.7-4.7h22.4c3.1,0,4.7,1.6,4.7,4.7v122.4
		c0,8.7-1.6,14.5-4.7,17.6c-3.1,3.1-8,4.6-14.5,4.6h-18.3c-3.3,0-6-0.1-8.2-0.4c-2.2-0.3-4.2-0.9-5.9-1.7c-1.7-0.9-3.4-2.1-5-3.7
		c-1.6-1.6-3.5-3.9-5.7-6.7l-79.5-104.1c-0.9-1-1.8-1.5-2.8-1.5h-1.9c-1.1,0-1.7,0.7-1.7,2.1V184c0,3.1-1.6,4.7-4.7,4.7h-22.4
		c-3.3,0-4.9-1.6-4.9-4.7V61.6c0-8.7,1.6-14.5,4.7-17.6c3.1-3.1,8-4.6,14.5-4.6H2145.8z"/>
	<path class="st1" d="M2440.3,39.4c10.8,0,20,1,27.6,3.1c7.6,2.1,13.8,5.3,18.6,9.8c4.8,4.5,8.2,10.3,10.3,17.4
		c2.1,7.1,3.2,15.8,3.2,26v36.7c0,10.2-1.1,18.9-3.2,26.1c-2.1,7.2-5.6,13-10.3,17.5c-4.8,4.5-10.9,7.7-18.6,9.7
		c-7.6,2-16.8,3-27.6,3h-65.9c-10.8,0-20-1-27.5-3c-7.5-2-13.7-5.2-18.4-9.7c-4.8-4.5-8.2-10.3-10.4-17.5
		c-2.2-7.2-3.3-15.9-3.3-26.1V95.7c0-10.2,1.1-18.9,3.3-26c2.2-7.1,5.7-12.9,10.4-17.4c4.8-4.5,10.9-7.7,18.4-9.8
		c7.5-2.1,16.7-3.1,27.5-3.1H2440.3z M2347.3,130.1c0,5.5,0.5,10.2,1.4,14c0.9,3.8,2.5,6.8,4.6,9c2.1,2.2,5,3.8,8.6,4.7
		c3.6,0.9,8.2,1.4,13.8,1.4h63.3c5.5,0,10.1-0.5,13.8-1.4c3.6-0.9,6.5-2.5,8.6-4.7c2.1-2.2,3.7-5.2,4.6-9c0.9-3.8,1.4-8.4,1.4-14
		v-32c0-5.5-0.5-10.2-1.4-14c-0.9-3.8-2.5-6.8-4.6-9c-2.1-2.2-5-3.8-8.6-4.7c-3.6-0.9-8.2-1.4-13.8-1.4h-63.3
		c-5.5,0-10.1,0.5-13.8,1.4c-3.6,0.9-6.5,2.5-8.6,4.7c-2.1,2.2-3.7,5.2-4.6,9c-0.9,3.8-1.4,8.4-1.4,14V130.1z"/>
	<path class="st1" d="M2554,39.4c3.1,0,4.7,1.6,4.7,4.7v85.1c0,5.7,0.5,10.4,1.4,14.2c0.9,3.8,2.5,6.8,4.6,9c2.1,2.2,5,3.8,8.6,4.7
		c3.6,0.9,8.2,1.4,13.8,1.4h86.4c3.1,0,4.7,1.6,4.7,4.7V184c0,3.1-1.6,4.7-4.7,4.7h-87.6c-10.8,0-20-1-27.5-3
		c-7.5-2-13.7-5.2-18.4-9.7c-4.8-4.5-8.2-10.3-10.4-17.5c-2.2-7.2-3.3-15.9-3.3-26.1V44.1c0-3.1,1.6-4.7,4.9-4.7H2554z"/>
	<path class="st1" d="M2821.1,39.4c10.8,0,20,1,27.6,3.1c7.6,2.1,13.8,5.3,18.6,9.8c4.8,4.5,8.2,10.3,10.3,17.4
		c2.1,7.1,3.2,15.8,3.2,26v36.7c0,10.2-1.1,18.9-3.2,26.1c-2.1,7.2-5.6,13-10.3,17.5c-4.8,4.5-10.9,7.7-18.6,9.7
		c-7.6,2-16.8,3-27.6,3h-65.9c-10.8,0-20-1-27.5-3c-7.5-2-13.7-5.2-18.4-9.7c-4.8-4.5-8.2-10.3-10.4-17.5
		c-2.2-7.2-3.3-15.9-3.3-26.1V95.7c0-10.2,1.1-18.9,3.3-26c2.2-7.1,5.7-12.9,10.4-17.4c4.8-4.5,10.9-7.7,18.4-9.8
		c7.5-2.1,16.7-3.1,27.5-3.1H2821.1z M2728.2,130.1c0,5.5,0.5,10.2,1.4,14c0.9,3.8,2.5,6.8,4.6,9c2.1,2.2,5,3.8,8.6,4.7
		c3.6,0.9,8.2,1.4,13.8,1.4h63.3c5.5,0,10.1-0.5,13.8-1.4c3.6-0.9,6.5-2.5,8.6-4.7c2.1-2.2,3.7-5.2,4.6-9c0.9-3.8,1.4-8.4,1.4-14
		v-32c0-5.5-0.5-10.2-1.4-14c-0.9-3.8-2.5-6.8-4.6-9c-2.1-2.2-5-3.8-8.6-4.7c-3.6-0.9-8.2-1.4-13.8-1.4h-63.3
		c-5.5,0-10.1,0.5-13.8,1.4c-3.6,0.9-6.5,2.5-8.6,4.7c-2.1,2.2-3.7,5.2-4.6,9c-0.9,3.8-1.4,8.4-1.4,14V130.1z"/>
	<path class="st1" d="M3041.2,39.4c3.1,0,4.7,1.6,4.7,4.7v88.3c0,10.2-1.1,18.9-3.2,26.1c-2.1,7.2-5.6,13-10.3,17.5
		c-4.8,4.5-10.9,7.7-18.6,9.7c-7.6,2-16.8,3-27.6,3H2903c-3.3,0-4.9-1.6-4.9-4.7v-20.9c0-3.1,1.6-4.7,4.9-4.7h82.1
		c5.5,0,10.1-0.5,13.8-1.4c3.6-0.9,6.5-2.5,8.6-4.7c2.1-2.2,3.6-5.2,4.5-9c0.9-3.8,1.3-8.5,1.3-14.2V44.1c0-3.1,1.6-4.7,4.9-4.7
		H3041.2z"/>
	<path class="st1" d="M3101.8,39.4c3.1,0,4.7,1.6,4.7,4.7V184c0,3.1-1.6,4.7-4.7,4.7h-23c-3.3,0-4.9-1.6-4.9-4.7V44.1
		c0-3.1,1.6-4.7,4.9-4.7H3101.8z M3100.5,0c3.1,0,4.7,1.3,4.7,3.8v20.3c0,2.6-1.6,3.8-4.7,3.8h-20.9c-3.1,0-4.7-1.3-4.7-3.8V3.8
		c0-2.6,1.6-3.8,4.7-3.8H3100.5z"/>
</g>
<g class="st0">
	<path class="st1" d="M28,280.7c3.1,0,4.7,1.6,4.7,4.7v140.3c0,3.1-1.6,4.7-4.7,4.7H4.9c-3.3,0-4.9-1.6-4.9-4.7V285.4
		c0-3.1,1.6-4.7,4.9-4.7H28z M26.7,241.1c3.1,0,4.7,1.3,4.7,3.8v20.3c0,2.6-1.6,3.8-4.7,3.8h-21c-3.1,0-4.7-1.3-4.7-3.8V245
		c0-2.6,1.6-3.8,4.7-3.8H26.7z"/>
	<path class="st1" d="M101.6,280.7c3.1,0,4.7,1.6,4.7,4.7v85.3c0,5.7,0.5,10.4,1.4,14.2c0.9,3.8,2.5,6.8,4.6,9
		c2.1,2.2,5,3.8,8.7,4.7c3.6,0.9,8.2,1.4,13.8,1.4h86.6c3.1,0,4.7,1.6,4.7,4.7v21c0,3.1-1.6,4.7-4.7,4.7h-87.9c-10.8,0-20-1-27.6-3
		c-7.6-2-13.7-5.2-18.5-9.7c-4.8-4.5-8.3-10.3-10.5-17.5c-2.2-7.2-3.3-15.9-3.3-26.2v-88.5c0-3.1,1.6-4.7,4.9-4.7H101.6z"/>
	<path class="st1" d="M410.3,280.7c3.3,0,4.9,1.6,4.9,4.7v20.3c0,3.1-1.6,4.7-4.9,4.7h-93.4c-5.6,0-10.2,0.5-13.8,1.4
		c-3.6,0.9-6.6,2.5-8.8,4.7c-2.2,2.2-3.7,5.2-4.6,9c-0.9,3.8-1.3,8.4-1.3,14v2.1h120.8c3.1,0,4.7,1.6,4.7,4.7v16.9
		c0,3.1-1.6,4.7-4.7,4.7H288.4v3.6c0,5.6,0.4,10.2,1.3,14c0.9,3.8,2.4,6.8,4.6,9c2.2,2.2,5.1,3.8,8.8,4.7c3.6,0.9,8.2,1.4,13.8,1.4
		h93.4c3.3,0,4.9,1.6,4.9,4.7v20.3c0,3.1-1.6,4.7-4.9,4.7h-94.1c-10.8,0-20-1-27.6-3c-7.6-2-13.7-5.2-18.5-9.7
		c-4.8-4.5-8.3-10.3-10.5-17.5c-2.2-7.2-3.3-15.9-3.3-26.2v-36.8c0-10.3,1.1-19,3.3-26.1c2.2-7.1,5.7-12.9,10.5-17.4
		c4.8-4.5,10.9-7.8,18.5-9.8c7.6-2.1,16.7-3.1,27.6-3.1H410.3z"/>
	<path class="st1" d="M615.3,280.7c3.3,0,4.9,1.6,4.9,4.7v21c0,3.3-1.6,4.9-4.9,4.9h-67.1v114.4c0,3.1-1.6,4.7-4.7,4.7h-23.3
		c-3.1,0-4.7-1.6-4.7-4.7V311.2h-67.1c-3.3,0-4.9-1.6-4.9-4.9v-21c0-3.1,1.6-4.7,4.9-4.7H615.3z"/>
	<path class="st1" d="M680.1,280.7c3.1,0,4.7,1.6,4.7,4.7v140.3c0,3.1-1.6,4.7-4.7,4.7H657c-3.3,0-4.9-1.6-4.9-4.7V285.4
		c0-3.1,1.6-4.7,4.9-4.7H680.1z M678.8,241.1c3.1,0,4.7,1.3,4.7,3.8v20.3c0,2.6-1.6,3.8-4.7,3.8h-21c-3.1,0-4.7-1.3-4.7-3.8V245
		c0-2.6,1.6-3.8,4.7-3.8H678.8z"/>
	<path class="st1" d="M874.6,280.7c3.1,0,4.7,1.6,4.7,4.7v20.3c0,3.1-1.6,4.7-4.7,4.7H767.5c-4.1,0-7.1,1.1-8.8,3.2
		c-1.7,2.1-2.6,5.1-2.6,8.8v7.3c0,8,3.7,12,11.1,12h80.2c12.4,0,21.7,3.2,28,9.5c6.3,6.3,9.4,15.4,9.4,27.3v17.1
		c0,10.4-3.1,18.8-9.2,25.2c-6.1,6.4-15.7,9.6-28.6,9.6H728.6c-3.3,0-4.9-1.6-4.9-4.7v-20.3c0-3.1,1.6-4.7,4.9-4.7h112.2
		c4.1,0,7.1-1.1,8.8-3.2c1.7-2.1,2.6-5.1,2.6-8.8v-8.8c0-8-3.7-12-11.1-12h-80.2c-12.4,0-21.7-3.2-28-9.5
		c-6.3-6.3-9.4-15.4-9.4-27.3v-15.6c0-10.4,3.1-18.8,9.2-25.2c6.1-6.4,15.7-9.6,28.6-9.6H874.6z M814.6,439.1c3.6,0,4.9,1.9,4.1,5.6
		l-9.4,38.9c-0.9,3.3-2.6,4.9-5.3,4.9h-12.2c-3.6,0-5.2-1.6-4.9-4.9l3.4-39.6c0.3-3.3,2-4.9,5.1-4.9H814.6z"/>
	<path class="st1" d="M950.1,280.7c3.1,0,4.7,1.6,4.7,4.7v140.3c0,3.1-1.6,4.7-4.7,4.7H927c-3.3,0-4.9-1.6-4.9-4.7V285.4
		c0-3.1,1.6-4.7,4.9-4.7H950.1z M948.8,241.1c3.1,0,4.7,1.3,4.7,3.8v20.3c0,2.6-1.6,3.8-4.7,3.8h-21c-3.1,0-4.7-1.3-4.7-3.8V245
		c0-2.6,1.6-3.8,4.7-3.8H948.8z"/>
	<path class="st1" d="M1038.4,280.7c3.1,0,5.8,0.2,8.1,0.6c2.3,0.4,4.3,1.2,6,2.5c1.7,1.2,3.2,2.9,4.6,4.9c1.4,2.1,2.7,4.8,4.2,8.2
		l44.5,102.6c0.6,1.3,1.6,1.9,3,1.9h2.6c1.4,0,2.4-0.6,3-1.9l44.5-102.6c1.4-3.4,2.8-6.2,4.2-8.2c1.4-2.1,2.9-3.7,4.6-4.9
		c1.7-1.2,3.7-2,5.9-2.5c2.2-0.4,4.9-0.6,8-0.6h22.9c7.4,0,12.4,1.7,15,5c2.6,3.4,3.8,9.1,3.8,17.2v122.7c0,3.1-1.6,4.7-4.9,4.7
		h-21.8c-3.1,0-4.7-1.6-4.7-4.7V314c0-1.4-0.6-2.1-1.7-2.1h-1.9c-1.4,0-2.4,0.6-2.8,1.7l-43.2,95.8c-1.7,3.8-3.5,7.1-5.2,9.7
		c-1.8,2.6-3.7,4.8-5.8,6.5c-2.1,1.7-4.4,2.9-7.1,3.6c-2.6,0.7-5.7,1.1-9.3,1.1h-10.3c-3.6,0-6.7-0.4-9.3-1.1
		c-2.6-0.7-5-1.9-7.1-3.6c-2.1-1.7-4-3.9-5.8-6.5c-1.8-2.6-3.5-5.9-5.2-9.7l-43.2-95.8c-0.4-1.1-1.4-1.7-2.8-1.7h-1.9
		c-1.1,0-1.7,0.7-1.7,2.1v111.6c0,3.1-1.6,4.7-4.7,4.7H1001c-3.3,0-4.9-1.6-4.9-4.7V302.9c0-8.1,1.3-13.9,3.8-17.2
		c2.6-3.3,7.6-5,15.2-5H1038.4z"/>
	<path class="st1" d="M1376.6,280.7c3.1,0,4.7,1.6,4.7,4.7V341h100.1v-55.6c0-3.1,1.6-4.7,4.7-4.7h23.1c3.3,0,4.9,1.6,4.9,4.7v140.3
		c0,3.1-1.6,4.7-4.9,4.7h-23.1c-3.1,0-4.7-1.6-4.7-4.7v-56.9h-100.1v56.9c0,3.1-1.6,4.7-4.7,4.7h-23.1c-3.3,0-4.9-1.6-4.9-4.7V285.4
		c0-3.1,1.6-4.7,4.9-4.7H1376.6z"/>
	<path class="st1" d="M1583.2,280.7c3.1,0,4.7,1.6,4.7,4.7v140.3c0,3.1-1.6,4.7-4.7,4.7h-23.1c-3.3,0-4.9-1.6-4.9-4.7V285.4
		c0-3.1,1.6-4.7,4.9-4.7H1583.2z M1581.9,241.1c3.1,0,4.7,1.3,4.7,3.8v20.3c0,2.6-1.6,3.8-4.7,3.8h-21c-3.1,0-4.7-1.3-4.7-3.8V245
		c0-2.6,1.6-3.8,4.7-3.8H1581.9z"/>
	<path class="st1" d="M1769.8,280.7c11.3,0,16.9,5.4,16.9,16.2v19.5c0,2.6-0.2,4.7-0.5,6.5c-0.4,1.8-0.9,3.4-1.7,4.7
		c-0.8,1.4-1.9,2.5-3.2,3.5c-1.4,1-3.1,2.1-5.2,3.2L1662.9,394c-1.3,0.7-1.9,1.8-1.9,3.2v1.5c0,1.3,0.7,1.9,2.1,1.9h117.4
		c3.3,0,4.9,1.6,4.9,4.7v20.3c0,3.1-1.6,4.7-4.9,4.7h-138.3c-6,0-10.3-1.3-12.9-4c-2.6-2.6-4-6.7-4-12.1v-19.5
		c0-2.6,0.1-4.7,0.4-6.5c0.3-1.8,0.8-3.3,1.5-4.7c0.7-1.4,1.7-2.5,3-3.5c1.3-1,3-2.1,5.1-3.2L1748,317c1.3-0.7,1.9-1.8,1.9-3.2v-1.5
		c0-1.3-0.7-1.9-2.1-1.9h-116.3c-3.3,0-4.9-1.6-4.9-4.7v-20.3c0-3.1,1.6-4.7,4.9-4.7H1769.8z"/>
	<path class="st1" d="M1866.9,280.7c3.1,0,5.8,0.2,8.1,0.6c2.3,0.4,4.3,1.2,6,2.5c1.7,1.2,3.2,2.9,4.6,4.9c1.4,2.1,2.7,4.8,4.2,8.2
		l44.5,102.6c0.6,1.3,1.6,1.9,3,1.9h2.6c1.4,0,2.4-0.6,3-1.9l44.5-102.6c1.4-3.4,2.8-6.2,4.2-8.2c1.4-2.1,2.9-3.7,4.6-4.9
		c1.7-1.2,3.7-2,5.9-2.5c2.2-0.4,4.9-0.6,8-0.6h22.9c7.4,0,12.4,1.7,15,5c2.6,3.4,3.8,9.1,3.8,17.2v122.7c0,3.1-1.6,4.7-4.9,4.7
		h-21.8c-3.1,0-4.7-1.6-4.7-4.7V314c0-1.4-0.6-2.1-1.7-2.1h-1.9c-1.4,0-2.4,0.6-2.8,1.7l-43.2,95.8c-1.7,3.8-3.5,7.1-5.2,9.7
		c-1.8,2.6-3.7,4.8-5.8,6.5c-2.1,1.7-4.4,2.9-7.1,3.6c-2.6,0.7-5.7,1.1-9.3,1.1h-10.3c-3.6,0-6.7-0.4-9.3-1.1
		c-2.6-0.7-5-1.9-7.1-3.6c-2.1-1.7-4-3.9-5.8-6.5c-1.8-2.6-3.5-5.9-5.2-9.7l-43.2-95.8c-0.4-1.1-1.4-1.7-2.8-1.7h-1.9
		c-1.1,0-1.7,0.7-1.7,2.1v111.6c0,3.1-1.6,4.7-4.7,4.7h-21.8c-3.3,0-4.9-1.6-4.9-4.7V302.9c0-8.1,1.3-13.9,3.8-17.2
		c2.6-3.3,7.6-5,15.2-5H1866.9z"/>
	<path class="st1" d="M2244.9,280.7c3.3,0,4.9,1.6,4.9,4.7v20.3c0,3.1-1.6,4.7-4.9,4.7h-93.4c-5.6,0-10.2,0.5-13.8,1.4
		c-3.6,0.9-6.6,2.5-8.8,4.7c-2.2,2.2-3.7,5.2-4.6,9c-0.9,3.8-1.3,8.4-1.3,14v2.1h120.8c3.1,0,4.7,1.6,4.7,4.7v16.9
		c0,3.1-1.6,4.7-4.7,4.7H2123v3.6c0,5.6,0.4,10.2,1.3,14c0.9,3.8,2.4,6.8,4.6,9c2.2,2.2,5.1,3.8,8.8,4.7c3.6,0.9,8.2,1.4,13.8,1.4
		h93.4c3.3,0,4.9,1.6,4.9,4.7v20.3c0,3.1-1.6,4.7-4.9,4.7h-94.1c-10.8,0-20-1-27.6-3c-7.6-2-13.7-5.2-18.5-9.7
		c-4.8-4.5-8.3-10.3-10.5-17.5c-2.2-7.2-3.3-15.9-3.3-26.2v-36.8c0-10.3,1.1-19,3.3-26.1c2.2-7.1,5.7-12.9,10.5-17.4
		c4.8-4.5,10.9-7.8,18.5-9.8c7.6-2.1,16.7-3.1,27.6-3.1H2244.9z"/>
	<path class="st1" d="M2449.9,280.7c3.3,0,4.9,1.6,4.9,4.7v21c0,3.3-1.6,4.9-4.9,4.9h-67.1v114.4c0,3.1-1.6,4.7-4.7,4.7h-23.3
		c-3.1,0-4.7-1.6-4.7-4.7V311.2h-67.1c-3.3,0-4.9-1.6-4.9-4.9v-21c0-3.1,1.6-4.7,4.9-4.7H2449.9z"/>
	<path class="st1" d="M2516.4,280.7c3.1,0,4.7,1.6,4.7,4.7v85.3c0,5.7,0.5,10.4,1.4,14.2c0.9,3.8,2.5,6.8,4.6,9
		c2.1,2.2,5,3.8,8.7,4.7c3.6,0.9,8.2,1.4,13.8,1.4h86.6c3.1,0,4.7,1.6,4.7,4.7v21c0,3.1-1.6,4.7-4.7,4.7h-87.9c-10.8,0-20-1-27.6-3
		c-7.6-2-13.7-5.2-18.5-9.7c-4.8-4.5-8.3-10.3-10.5-17.5c-2.2-7.2-3.3-15.9-3.3-26.2v-88.5c0-3.1,1.6-4.7,4.9-4.7H2516.4z"/>
	<path class="st1" d="M2825.1,280.7c3.3,0,4.9,1.6,4.9,4.7v20.3c0,3.1-1.6,4.7-4.9,4.7h-93.4c-5.6,0-10.2,0.5-13.8,1.4
		c-3.6,0.9-6.6,2.5-8.8,4.7c-2.2,2.2-3.7,5.2-4.6,9c-0.9,3.8-1.3,8.4-1.3,14v2.1H2824c3.1,0,4.7,1.6,4.7,4.7v16.9
		c0,3.1-1.6,4.7-4.7,4.7h-120.8v3.6c0,5.6,0.4,10.2,1.3,14c0.9,3.8,2.4,6.8,4.6,9c2.2,2.2,5.1,3.8,8.8,4.7c3.6,0.9,8.2,1.4,13.8,1.4
		h93.4c3.3,0,4.9,1.6,4.9,4.7v20.3c0,3.1-1.6,4.7-4.9,4.7H2731c-10.8,0-20-1-27.6-3c-7.6-2-13.7-5.2-18.5-9.7
		c-4.8-4.5-8.3-10.3-10.5-17.5c-2.2-7.2-3.3-15.9-3.3-26.2v-36.8c0-10.3,1.1-19,3.3-26.1c2.2-7.1,5.7-12.9,10.5-17.4
		c4.8-4.5,10.9-7.8,18.5-9.8c7.6-2.1,16.7-3.1,27.6-3.1H2825.1z"/>
	<path class="st1" d="M2988.7,280.7c16.4,0,28.1,3.7,35.3,11.1c7.1,7.4,10.7,18.4,10.7,32.9v12.2c0,12.3-2.5,22-7.5,29.1
		c-5,7.1-13.1,11.7-24.4,13.7l36.6,45.3c0.7,0.7,0.9,1.8,0.6,3.2c-0.3,1.4-1.4,2.1-3.4,2.1H3009c-1.9,0-3.1-0.2-3.8-0.6
		c-0.7-0.4-1.4-1.1-2.1-2.1l-33.8-44.5h-69.1v42.5c0,3.1-1.6,4.7-4.7,4.7h-23.1c-3.3,0-4.9-1.6-4.9-4.7V287.1c0-4.3,2.1-6.4,6.4-6.4
		H2988.7z M2900.1,357h81.9c7.3,0,12.4-1.6,15.4-4.7c3-3.1,4.5-7.9,4.5-14.3v-9c0-6.4-1.5-11.2-4.5-14.3c-3-3.1-8.1-4.7-15.4-4.7
		h-79.1c-1.9,0-2.8,0.9-2.8,2.6V357z"/>
	<path class="st1" d="M3101.8,280.7c3.1,0,4.7,1.6,4.7,4.7v140.3c0,3.1-1.6,4.7-4.7,4.7h-23.1c-3.3,0-4.9-1.6-4.9-4.7V285.4
		c0-3.1,1.6-4.7,4.9-4.7H3101.8z M3100.5,241.1c3.1,0,4.7,1.3,4.7,3.8v20.3c0,2.6-1.6,3.8-4.7,3.8h-21c-3.1,0-4.7-1.3-4.7-3.8V245
		c0-2.6,1.6-3.8,4.7-3.8H3100.5z"/>
</g>
</svg>
