<?xml version="1.0" encoding="utf-8"?>
<!-- Generator: Adobe Illustrator 26.0.1, SVG Export Plug-In . SVG Version: 6.00 Build 0)  -->
<svg version="1.1" id="Layer_1" xmlns="http://www.w3.org/2000/svg" xmlns:xlink="http://www.w3.org/1999/xlink" x="0px" y="0px"
	 viewBox="0 0 307 139" style="enable-background:new 0 0 307 139;" xml:space="preserve">
<style type="text/css">
	.st0{fill:url(#SVGID_1_);}
	.st1{fill:#FFFFFF;}
	.st2{fill:url(#SVGID_00000018206829215160131340000004702196470003044525_);}
	.st3{fill:url(#SVGID_00000034790217275609433640000009916587401715600811_);}
	.st4{fill:url(#SVGID_00000018928248559325032610000009616805470471220395_);}
	.st5{clip-path:url(#SVGID_00000007401993276304565450000015181302372330365855_);}
	.st6{fill:url(#SVGID_00000087398098139675350310000014375055681570103191_);}
	.st7{fill:#939598;}
	.st8{fill:none;stroke:#000000;stroke-width:3;stroke-linecap:round;stroke-linejoin:round;}
</style>
<g>
	<radialGradient id="SVGID_1_" cx="41.051" cy="44.3713" r="21.7356" gradientUnits="userSpaceOnUse">
		<stop  offset="0" style="stop-color:#FDE9F1"/>
		<stop  offset="1" style="stop-color:#C4161C"/>
	</radialGradient>
	<path class="st0" d="M62.8,61.1c0,2.8-2.2,5-5,5H24.3c-2.8,0-5-2.2-5-5V27.6c0-2.8,2.2-5,5-5h33.5c2.8,0,5,2.2,5,5V61.1z"/>
	<g>
		<path class="st1" d="M56.8,44.5L45.9,46l7.8,8.4l-7.2,5l-5.4-10.1l-5.4,10.1l-7.3-5l7.8-8.4l-10.9-1.5l2.8-8l10,4.3l-1.7-11.4h9.3
			L44,40.8l9.9-4.3L56.8,44.5z"/>
	</g>
	
		<radialGradient id="SVGID_00000135652445479251630870000005762655831840447142_" cx="95.301" cy="44.3713" r="21.7356" gradientUnits="userSpaceOnUse">
		<stop  offset="0" style="stop-color:#FDE9F1"/>
		<stop  offset="1" style="stop-color:#E8B909"/>
	</radialGradient>
	<path style="fill:url(#SVGID_00000135652445479251630870000005762655831840447142_);" d="M117,61.1c0,2.8-2.2,5-5,5H78.6
		c-2.8,0-5-2.2-5-5V27.6c0-2.8,2.2-5,5-5H112c2.8,0,5,2.2,5,5V61.1z"/>
	<g>
		<path class="st1" d="M111.1,44.5L100.2,46l7.8,8.4l-7.2,5l-5.4-10.1l-5.4,10.1l-7.3-5l7.8-8.4l-10.9-1.5l2.8-8l10,4.3l-1.7-11.4
			h9.3l-1.7,11.4l9.9-4.3L111.1,44.5z"/>
	</g>
	
		<radialGradient id="SVGID_00000014625086904681564170000003088023721254026634_" cx="149.5512" cy="44.3713" r="21.7357" gradientUnits="userSpaceOnUse">
		<stop  offset="0" style="stop-color:#FDE9F1"/>
		<stop  offset="1" style="stop-color:#0089CF"/>
	</radialGradient>
	<path style="fill:url(#SVGID_00000014625086904681564170000003088023721254026634_);" d="M171.3,61.1c0,2.8-2.2,5-5,5h-33.5
		c-2.8,0-5-2.2-5-5V27.6c0-2.8,2.2-5,5-5h33.5c2.8,0,5,2.2,5,5V61.1z"/>
	<g>
		<path class="st1" d="M165.3,44.5L154.4,46l7.8,8.4l-7.2,5l-5.4-10.1l-5.4,10.1l-7.3-5l7.8-8.4l-10.9-1.5l2.8-8l10,4.3l-1.7-11.4
			h9.3l-1.7,11.4l9.9-4.3L165.3,44.5z"/>
	</g>
	
		<radialGradient id="SVGID_00000152976219843170977690000015977625011379765670_" cx="203.8012" cy="44.3713" r="21.7357" gradientUnits="userSpaceOnUse">
		<stop  offset="0" style="stop-color:#FDE9F1"/>
		<stop  offset="1" style="stop-color:#0DB14B"/>
	</radialGradient>
	<path style="fill:url(#SVGID_00000152976219843170977690000015977625011379765670_);" d="M225.5,61.1c0,2.8-2.2,5-5,5h-33.5
		c-2.8,0-5-2.2-5-5V27.6c0-2.8,2.2-5,5-5h33.5c2.8,0,5,2.2,5,5V61.1z"/>
	<g>
		<path class="st1" d="M219.6,44.5L208.7,46l7.8,8.4l-7.2,5l-5.4-10.1l-5.4,10.1l-7.3-5l7.8-8.4L188,44.5l2.8-8l10,4.3l-1.7-11.4
			h9.3l-1.7,11.4l9.9-4.3L219.6,44.5z"/>
	</g>
	<g>
		<defs>
			<path id="SVGID_00000008150157259203063240000017441430534822409142_" d="M251,68.4V53c0,0,0.2-7.4,7-7.4c6.9,0,7.5,7.5,7.5,7.5
				v15.9h16.3V21.4h-47.8v45.7L251,68.4z"/>
		</defs>
		<clipPath id="SVGID_00000008123008472298842960000003482545010207915443_">
			<use xlink:href="#SVGID_00000008150157259203063240000017441430534822409142_"  style="overflow:visible;"/>
		</clipPath>
		<g style="clip-path:url(#SVGID_00000008123008472298842960000003482545010207915443_);">
			
				<radialGradient id="SVGID_00000036937218699193616390000010810293461436108448_" cx="258.0512" cy="44.3713" r="21.7357" gradientUnits="userSpaceOnUse">
				<stop  offset="0" style="stop-color:#FDE9F1"/>
				<stop  offset="1" style="stop-color:#832A7E"/>
			</radialGradient>
			<path style="fill:url(#SVGID_00000036937218699193616390000010810293461436108448_);" d="M279.8,61.1c0,2.8-2.2,5-5,5h-33.5
				c-2.8,0-5-2.2-5-5V27.6c0-2.8,2.2-5,5-5h33.5c2.8,0,5,2.2,5,5V61.1z"/>
			<g>
				<path class="st1" d="M273.8,44.5L262.9,46l7.8,8.4l-7.2,5l-5.4-10.1l-5.4,10.1l-7.3-5l7.8-8.4l-10.9-1.5l2.8-8l10,4.3l-1.7-11.4
					h9.3L261,40.8l9.9-4.3L273.8,44.5z"/>
			</g>
		</g>
	</g>
	<g>
		<path class="st7" d="M24.3,73.6h3.6v3.3h-3.6V73.6z M27.9,97.4h-3.6V78.8h3.6V97.4z"/>
		<path class="st7" d="M43.4,97.4H40v-8.2c0-0.8-0.2-1.5-0.7-1.9c-0.4-0.4-0.9-0.5-1.5-0.5c-0.6,0-1.1,0.2-1.5,0.5
			c-0.2,0.2-0.4,0.5-0.5,0.8c-0.1,0.3-0.2,0.7-0.2,1.1v8.2h-3.4V83.8h3.3V85c0.9-0.9,2-1.4,3.4-1.4c1.3,0,2.4,0.4,3.2,1.2
			c0.9,0.9,1.4,2.2,1.4,3.9V97.4z"/>
		<path class="st7" d="M53.4,97.4h-1.9c-1.3,0-2.3-0.4-3-1.2c-0.6-0.7-0.9-1.6-0.9-2.7v-6.7h-1.4v-2.6h1.4v-4H51v4h2.4v2.6H51v6.5
			c0,0.8,0.4,1.2,1.2,1.2h1.2V97.4z"/>
		<path class="st7" d="M67.7,91.7h-8.5c0,0.9,0.3,1.6,0.8,2.2s1.3,0.8,2.2,0.8c1.2,0,2.2-0.4,3.1-1.3l2.1,2
			c-0.7,0.7-1.5,1.2-2.2,1.6c-0.8,0.4-1.8,0.5-2.9,0.5c-4.2,0-6.3-2.3-6.3-7c0-2.1,0.5-3.9,1.6-5.1c1-1.2,2.5-1.8,4.3-1.8
			c1.8,0,3.3,0.6,4.4,1.9c1,1.2,1.5,2.7,1.5,4.7V91.7z M64.3,89.3c0-0.5-0.1-1-0.3-1.5c-0.4-0.9-1.2-1.4-2.3-1.4
			c-1.1,0-1.9,0.5-2.3,1.4c-0.2,0.5-0.3,1-0.3,1.5H64.3z"/>
		<path class="st7" d="M80.9,84.9l-2.6,2.6c-0.5-0.5-1.1-0.8-1.8-0.8c-0.6,0-1.1,0.2-1.5,0.6c-0.5,0.5-0.7,1.1-0.7,1.9v8.2h-3.4
			V83.8h3.3v1.3c0.8-1,2-1.5,3.4-1.5C78.9,83.6,80,84.1,80.9,84.9z"/>
		<path class="st7" d="M94.7,97.4h-3.4v-8.2c0-0.8-0.2-1.5-0.7-1.9c-0.4-0.4-0.9-0.5-1.5-0.5c-0.6,0-1.1,0.2-1.5,0.5
			c-0.2,0.2-0.4,0.5-0.5,0.8c-0.1,0.3-0.2,0.7-0.2,1.1v8.2h-3.4V83.8h3.3V85c0.9-0.9,2-1.4,3.4-1.4c1.3,0,2.4,0.4,3.2,1.2
			c0.9,0.9,1.4,2.2,1.4,3.9V97.4z"/>
		<path class="st7" d="M109.7,91.7h-8.5c0,0.9,0.3,1.6,0.8,2.2c0.5,0.6,1.3,0.8,2.2,0.8c1.2,0,2.2-0.4,3.1-1.3l2.1,2
			c-0.7,0.7-1.5,1.2-2.2,1.6c-0.8,0.4-1.8,0.5-2.9,0.5c-4.2,0-6.3-2.3-6.3-7c0-2.1,0.5-3.9,1.6-5.1c1-1.2,2.5-1.8,4.3-1.8
			c1.8,0,3.3,0.6,4.4,1.9c1,1.2,1.5,2.7,1.5,4.7V91.7z M106.4,89.3c0-0.5-0.1-1-0.3-1.5c-0.4-0.9-1.2-1.4-2.3-1.4
			c-1.1,0-1.9,0.5-2.3,1.4c-0.2,0.5-0.3,1-0.3,1.5H106.4z"/>
		<path class="st7" d="M119.2,97.4h-1.9c-1.3,0-2.3-0.4-3-1.2c-0.6-0.7-0.9-1.6-0.9-2.7v-6.7H112v-2.6h1.4v-4h3.4v4h2.4v2.6h-2.4
			v6.5c0,0.8,0.4,1.2,1.2,1.2h1.2V97.4z"/>
		<path class="st7" d="M129,97.4h-1.9c-1.3,0-2.3-0.4-3-1.2c-0.6-0.7-0.9-1.6-0.9-2.7v-6.7h-1.4v-2.6h1.4v-4h3.4v4h2.4v2.6h-2.4v6.5
			c0,0.8,0.4,1.2,1.2,1.2h1.2V97.4z"/>
		<path class="st7" d="M143.3,91.7h-8.5c0,0.9,0.3,1.6,0.8,2.2c0.5,0.6,1.3,0.8,2.2,0.8c1.2,0,2.2-0.4,3.1-1.3l2.1,2
			c-0.7,0.7-1.5,1.2-2.2,1.6c-0.8,0.4-1.8,0.5-2.9,0.5c-4.2,0-6.3-2.3-6.3-7c0-2.1,0.5-3.9,1.6-5.1c1-1.2,2.5-1.8,4.3-1.8
			c1.8,0,3.3,0.6,4.4,1.9c1,1.2,1.5,2.7,1.5,4.7V91.7z M139.9,89.3c0-0.5-0.1-1-0.3-1.5c-0.4-0.9-1.2-1.4-2.3-1.4
			c-1.1,0-1.9,0.5-2.3,1.4c-0.2,0.5-0.3,1-0.3,1.5H139.9z"/>
		<path class="st7" d="M37.6,112.8c0,2.5-0.6,4.4-1.8,5.7c-1.4,1.4-3.1,2.1-5.3,2.1c-2,0-3.7-0.7-5-2c-0.8-0.8-1.4-1.9-1.6-3.2
			c-0.1-0.4-0.1-0.9-0.2-1.6c0-0.7-0.1-1.5-0.1-2.7c0-2.1,0.1-3.5,0.2-4.2c0.2-1.3,0.8-2.4,1.6-3.2c1.4-1.4,3-2,5-2
			c2,0,3.6,0.6,4.9,1.8c1.1,1,1.8,2.4,2.1,4.1h-3.7c-0.4-1.8-1.5-2.7-3.4-2.7c-0.9,0-1.7,0.3-2.3,1c-0.4,0.5-0.7,1.3-0.8,2.5v2.7
			c0,1.6,0,2.6,0.1,3c0,0.4,0.1,0.8,0.2,1.2c0.1,0.4,0.3,0.7,0.6,1c0.6,0.6,1.4,1,2.3,1c1.1,0,2-0.3,2.6-1c0.6-0.6,0.8-1.4,0.8-2.5
			v-0.7h-3.5V110h7.1V112.8z"/>
		<path class="st7" d="M52.4,120.4h-3.3v-1.3c-0.9,0.9-2,1.4-3.4,1.4c-1.3,0-2.4-0.4-3.2-1.2c-0.9-0.9-1.4-2.2-1.4-3.9v-8.7h3.4v8.2
			c0,0.8,0.2,1.5,0.7,1.9c0.4,0.4,0.9,0.5,1.5,0.5c0.6,0,1.1-0.2,1.5-0.5c0.2-0.2,0.4-0.5,0.5-0.8c0.1-0.3,0.2-0.7,0.2-1.2v-8.2h3.4
			V120.4z M45.3,104.6h-2.9v-3.3h2.9V104.6z M51.1,104.6h-2.9v-3.3h2.9V104.6z"/>
		<path class="st7" d="M67.6,106.8l-5,13.6h-2.7l-5-13.6h3.6l2.8,8.4l2.7-8.4H67.6z"/>
		<path class="st7" d="M80.8,114.7h-8.5c0,0.9,0.3,1.6,0.8,2.2c0.5,0.6,1.3,0.8,2.2,0.8c1.2,0,2.2-0.4,3.1-1.3l2.1,2
			c-0.7,0.7-1.5,1.2-2.2,1.6c-0.8,0.4-1.8,0.5-2.9,0.5c-4.2,0-6.3-2.3-6.3-7c0-2.1,0.5-3.9,1.6-5.1c1-1.2,2.5-1.8,4.3-1.8
			c1.8,0,3.3,0.6,4.4,1.9c1,1.2,1.5,2.7,1.5,4.7V114.7z M77.5,112.3c0-0.5-0.1-1-0.3-1.5c-0.4-0.9-1.2-1.4-2.3-1.4
			c-1.1,0-1.9,0.5-2.3,1.4c-0.2,0.5-0.3,1-0.3,1.5H77.5z"/>
		<path class="st7" d="M95.4,120.4H92v-8.2c0-0.8-0.2-1.5-0.7-1.9c-0.4-0.4-0.9-0.5-1.5-0.5c-0.6,0-1.1,0.2-1.5,0.5
			c-0.2,0.2-0.4,0.5-0.5,0.8s-0.2,0.7-0.2,1.1v8.2h-3.4v-13.6h3.3v1.3c0.9-0.9,2-1.4,3.4-1.4c1.3,0,2.4,0.4,3.2,1.2
			c0.9,0.9,1.4,2.2,1.4,3.9V120.4z"/>
		<path class="st7" d="M105,120.4H103c-1.3,0-2.3-0.4-3-1.2c-0.6-0.7-0.9-1.6-0.9-2.7v-14.7h3.4v14.5c0,0.8,0.4,1.2,1.2,1.2h1.3
			V120.4z"/>
		<path class="st7" d="M111.2,104.5h-3.4v-2.8h3.4V104.5z M111.2,120.4h-3.4v-13.6h3.4V120.4z"/>
		<path class="st7" d="M136.4,120.4h-3.8l-1.1-3.3h-6.6l-1.1,3.3H120l6.8-18.6h2.8L136.4,120.4z M130.5,114.1l-2.3-6.8l-2.4,6.8
			H130.5z"/>
		<path class="st7" d="M144.4,120.4h-1.9c-1.3,0-2.3-0.4-3-1.2c-0.6-0.7-0.9-1.6-0.9-2.7v-14.7h3.4v14.5c0,0.8,0.4,1.2,1.2,1.2h1.3
			V120.4z"/>
		<path class="st7" d="M150.7,120.4h-3.4v-13.6h3.4V120.4z"/>
		<path class="st7" d="M161.5,120.4v3h-3.4v-2.8c-1.8-0.2-3.3-0.8-4.4-1.9l2.2-2.2c0.9,0.9,2.1,1.3,3.6,1.3c1.6,0,2.4-0.5,2.4-1.4
			c0-0.7-0.5-1.1-1.4-1.3l-2.1-0.2c-2.6-0.3-4-1.5-4-3.8c0-1.4,0.5-2.4,1.6-3.2c1-0.7,2.2-1.1,3.7-1.1c2.3,0,4.1,0.5,5.2,1.6
			l-2.1,2.1c-0.7-0.6-1.8-0.9-3.2-0.9c-1.3,0-1.9,0.4-1.9,1.3c0,0.7,0.5,1.1,1.4,1.2l2.1,0.2c2.7,0.3,4.1,1.6,4.1,4
			C165.3,118.3,164,119.8,161.5,120.4z"/>
		<path class="st7" d="M179.7,106.8l-5,13.6H172l-5-13.6h3.6l2.8,8.4l2.7-8.4H179.7z"/>
		<path class="st7" d="M192.9,114.7h-8.5c0,0.9,0.3,1.6,0.8,2.2c0.5,0.6,1.3,0.8,2.2,0.8c1.2,0,2.2-0.4,3.1-1.3l2.1,2
			c-0.7,0.7-1.5,1.2-2.2,1.6c-0.8,0.4-1.8,0.5-2.9,0.5c-4.2,0-6.3-2.3-6.3-7c0-2.1,0.5-3.9,1.6-5.1c1-1.2,2.5-1.8,4.3-1.8
			c1.8,0,3.3,0.6,4.4,1.9c1,1.2,1.5,2.7,1.5,4.7V114.7z M189.6,112.3c0-0.5-0.1-1-0.3-1.5c-0.4-0.9-1.2-1.4-2.3-1.4
			c-1.1,0-1.9,0.5-2.3,1.4c-0.2,0.5-0.3,1-0.3,1.5H189.6z"/>
		<path class="st7" d="M206.1,107.9l-2.6,2.6c-0.5-0.5-1.1-0.8-1.8-0.8c-0.6,0-1.1,0.2-1.5,0.6c-0.5,0.5-0.7,1.1-0.7,1.9v8.2h-3.4
			v-13.6h3.3v1.3c0.8-1,2-1.5,3.4-1.5C204.2,106.6,205.3,107.1,206.1,107.9z"/>
		<path class="st7" d="M212,104.5h-3.4v-2.8h3.4V104.5z M212,120.4h-3.4v-13.6h3.4V120.4z"/>
		<path class="st7" d="M222.7,120.4v3h-3.4v-2.8c-1.8-0.2-3.3-0.8-4.4-1.9l2.2-2.2c0.9,0.9,2.1,1.3,3.6,1.3c1.6,0,2.4-0.5,2.4-1.4
			c0-0.7-0.5-1.1-1.4-1.3l-2.1-0.2c-2.6-0.3-4-1.5-4-3.8c0-1.4,0.5-2.4,1.6-3.2c1-0.7,2.2-1.1,3.7-1.1c2.3,0,4.1,0.5,5.2,1.6
			l-2.1,2.1c-0.7-0.6-1.8-0.9-3.2-0.9c-1.3,0-1.9,0.4-1.9,1.3c0,0.7,0.5,1.1,1.4,1.2l2.1,0.2c2.7,0.3,4.1,1.6,4.1,4
			C226.4,118.3,225.2,119.8,222.7,120.4z"/>
	</g>
	<path class="st8" d="M296.6,108.2v18c0,2.8-2.2,5-5,5h-4h-1.3v-8.5l13.4-18.9c0,0,4.4-4.7,0-10.1c-4.4-5.4-9.4,0.7-9.4,0.7
		s4.2-6.9-1.2-11.1c-5.4-4.2-11.1,5.2-11.1,5.2s4-7.7-2.3-11.9c-6.4-4.2-10.2,6.4-10.2,6.4V53.1c0,0-0.7-7.5-7.5-7.5
		c-6.9,0-7,7.4-7,7.4v41.4c0,0-0.9,3.5-4.1,0c-3.2-3.5-6.8-7.9-6.8-7.9s-3.9-5.6-8.1-1.9c-3.2,2.8-2.3,7.7,0,10.8
		c2.3,3.2,18.8,25.5,18.8,25.5v10.3h-1.8H13.6c-2.8,0-5-2.2-5-5V15.7c0-2.8,2.2-5,5-5h278c2.8,0,5,2.2,5,5v75.9"/>
</g>
</svg>
